<svg width="534" height="133" viewBox="0 0 534 133" fill="none" xmlns="http://www.w3.org/2000/svg">
<g clip-path="url(#clip0_366_11)">
<path d="M48.5746 69.9757H30.3741L40.0677 38.3482L48.5746 69.9757ZM20.9339 104.83L27.1474 84.0027H51.668L57.4815 104.777H80.1487L57.6281 25.5745C56.2948 20.8944 53.4947 18.7344 48.5746 18.7344H16.4271V26.2146H19.0938C22.4539 26.2146 24.2673 27.5479 24.2673 30.0947C24.2673 31.788 23.8939 33.2014 22.5606 37.0548L0 104.83H20.9339Z" fill="#333333"/>
<path d="M106.376 104.83V25.3345C106.376 21.1878 103.949 18.7344 99.9358 18.7344H80.002V26.2146H81.3353C84.6821 26.2146 86.1088 27.6413 86.1088 31.028V104.83H106.376Z" fill="#333333"/>
<path d="M140.83 104.83V25.3345C140.83 21.1878 138.363 18.7344 134.377 18.7344H114.51V26.2146H115.843C119.203 26.2146 120.63 27.6413 120.63 31.028V104.83H140.83Z" fill="#333333"/>
<path d="M176.178 26.5914C176.178 20.8179 171.898 17.2578 164.564 17.2578C157.231 17.2578 152.924 20.7512 152.924 26.5914C152.924 32.4315 157.337 35.925 164.564 35.925C171.791 35.925 176.178 32.4582 176.178 26.5914ZM175.791 104.833V46.8852C175.791 42.7518 173.338 40.3117 169.324 40.3117H149.71V47.6452H150.87C154.217 47.6452 155.644 49.192 155.644 52.552V104.833H175.791Z" fill="#333333"/>
<path d="M220.166 73.8425V86.3895C216.792 89.8696 212.685 92.003 209.205 92.003C205.725 92.003 204.299 90.2163 204.299 85.3362C204.299 80.456 205.312 78.3893 208.939 76.9893C212.55 75.5191 216.316 74.4635 220.166 73.8425ZM192.912 58.7755C199.105 55.7027 205.882 53.9846 212.792 53.7354C218.232 53.7354 220.166 55.6687 220.166 61.3089V62.7489C211.912 64.0823 209.325 64.589 204.672 65.6157C202.065 66.1898 199.514 66.9883 197.045 68.0024C188.898 71.2691 185.045 77.5626 185.045 87.2295C185.045 99.4965 190.378 105.417 201.298 105.417C205.013 105.432 208.696 104.74 212.152 103.377C215.286 101.95 218.2 100.082 220.806 97.8298V98.7365C220.806 102.737 222.859 104.777 226.872 104.777H245.34V97.8832H244.433C240.953 97.8832 239.673 96.3231 239.673 92.203V61.4689C239.673 45.0818 233.979 39.375 217.565 39.375C212.362 39.4009 207.178 40.0137 202.112 41.2017C197.325 42.2691 192.715 44.011 188.418 46.3752L192.912 58.7755Z" fill="#333333"/>
<path d="M274.74 104.834V61.2063C278.114 57.4595 281.58 55.7661 285.581 55.7661C289.861 55.7661 290.914 57.4595 290.914 63.953V104.834H311.048V60.9663C311.048 50.7527 310.315 47.5259 307.048 44.0592C304.381 41.0591 300.208 39.5391 294.887 39.5391C287.007 39.5391 281.46 41.9791 274.007 48.9526V46.3792C274.007 42.3791 271.914 40.3124 267.793 40.3124H248.66V47.6459H249.82C253.166 47.6459 254.606 49.1926 254.606 52.5527V104.834H274.74Z" fill="#333333"/>
<path d="M370.769 91.2825H342.675L369.543 53.6149V40.2812H327.408C322.635 40.2812 320.435 42.468 320.435 47.2548V58.9884H327.915V57.8417C327.915 54.8683 329.462 53.4549 332.675 53.4549H347.155L320.008 91.5492V104.883H370.676L370.769 91.2825Z" fill="#333333"/>
<path d="M476.465 103.189V30.2408C476.465 24.4273 474.399 22.4672 468.758 22.4672H451.678V30.6674H452.705C456.598 30.6674 457.358 31.5475 457.358 36.2409V103.189H476.465ZM484.892 103.189H503.853V46.3745C503.853 40.6677 501.653 38.6143 496.092 38.6143H484.892V103.189ZM448.985 103.189V38.6676H437.744C432.184 38.6676 430.011 40.721 430.011 46.4278V103.189H448.985ZM521.8 66.1083C521.8 98.2558 498.679 121.63 466.932 121.63C435.184 121.63 412.01 98.2558 412.01 66.1083C412.01 33.9609 435.171 10.5869 466.932 10.5869C498.693 10.5869 521.8 34.0942 521.8 66.1083ZM533.027 66.1083C533.027 28.3074 504.746 0 466.932 0C429.117 0 400.81 28.3074 400.81 66.1083C400.81 103.909 429.091 132.203 466.932 132.203C504.773 132.203 533.027 104.003 533.027 66.1083Z" fill="#333333"/>
</g>
<defs>
<clipPath id="clip0_366_11">
<rect width="533.027" height="132.208" fill="white"/>
</clipPath>
</defs>
</svg>
