<?xml version="1.0" encoding="UTF-8" standalone="no"?>
<svg width="2147px" height="735px" viewBox="0 0 2147 735" version="1.1" xmlns="http://www.w3.org/2000/svg" xmlns:xlink="http://www.w3.org/1999/xlink">
    <!-- Generator: Sketch 3.8.3 (29802) - http://www.bohemiancoding.com/sketch -->
    <title>Slice 1</title>
    <desc>Created with Sketch.</desc>
    <defs/>
    <g id="Page-1" stroke="none" stroke-width="1" fill="none" fill-rule="evenodd">
        <g id="logo">
            <path d="M1061.145,414.083 C1061.145,474.81 1011.571,524.384 950.844,524.384 C890.117,524.384 840.543,474.81 840.543,414.083 L840.543,177.369 L807.08,177.369 L807.08,414.083 C807.08,493.4 871.525,557.847 950.844,557.847 C1030.163,557.847 1094.608,493.402 1094.608,414.083 L1094.608,177.369 L1061.145,177.369 L1061.145,414.083 L1061.145,414.083 Z" id="Shape" fill="#1C467E"/>
            <path d="M1291.664,160.017 C1212.347,160.017 1147.9,224.462 1147.9,303.781 L1147.9,541.733 L1181.363,541.733 L1181.363,305.019 C1181.363,244.292 1230.937,194.718 1291.664,194.718 C1352.391,194.718 1401.965,244.292 1401.965,305.019 L1401.965,541.733 L1435.428,541.733 L1435.428,305.019 C1435.428,225.702 1370.983,160.017 1291.664,160.017 L1291.664,160.017 Z" id="Shape" fill="#1C467E"/>
            <path d="M2004.282,169.933 C1949.75,169.933 1901.416,200.916 1876.629,246.772 C1851.842,200.916 1804.748,169.933 1748.976,169.933 C1669.659,169.933 1605.212,234.378 1605.212,313.697 L1605.212,550.411 L1638.675,550.411 L1638.675,314.937 C1638.675,254.21 1688.249,204.636 1748.976,204.636 C1809.703,204.636 1859.277,254.21 1859.277,314.937 L1859.277,551.651 L1892.74,551.651 L1892.74,314.937 C1892.74,254.21 1942.314,204.636 2003.041,204.636 C2063.768,204.636 2113.342,254.21 2113.342,314.937 L2113.342,551.651 L2146.805,551.651 L2146.805,314.937 C2149.283,234.38 2083.6,169.935 2004.281,169.935 L2004.282,169.933 Z" id="Shape" fill="#1C467E"/>
            <polygon id="Shape" fill="#1C467E" points="1502.351 176.129 1535.814 176.129 1535.814 540.494 1502.351 540.494"/>
            <path d="M463.784,489.681 L279.122,674.343 C265.489,687.976 265.489,710.283 279.122,723.917 C292.755,737.551 315.062,737.55 328.696,723.917 L513.358,539.255 C526.991,525.622 526.991,503.315 513.358,489.681 C499.725,477.288 477.418,477.288 463.784,489.681 L463.784,489.681 Z" id="Shape" fill="#3486C1"/>
            <path d="M591.437,42.28 C560.454,15.015 518.316,1.382 477.418,1.382 L417.931,1.382 C405.538,1.382 395.622,13.775 400.58,26.169 C403.058,31.127 405.538,36.085 408.016,41.04 C399.34,43.518 385.707,49.716 377.033,63.349 C384.469,59.631 384.469,58.391 389.426,58.391 L389.426,72.024 C389.426,72.024 400.58,55.913 420.409,54.673 C432.802,65.827 448.914,72.024 466.265,72.024 L483.616,72.024 C513.361,72.024 540.626,85.657 559.215,109.204 C572.848,126.555 579.044,148.862 579.044,171.171 L579.044,171.171 C579.044,195.958 569.128,220.745 551.779,238.096 L199.808,590.067 C187.415,602.46 184.937,622.29 194.85,635.923 C207.243,653.274 233.27,655.752 248.142,640.881 L598.875,287.67 C629.858,256.687 647.209,214.549 647.209,171.173 L647.209,167.455 C647.209,119.121 627.38,74.505 591.439,42.282 L591.437,42.28 Z M451.391,28.647 C446.433,28.647 442.715,24.929 442.715,19.971 L461.304,19.971 C461.304,24.929 456.346,28.647 451.388,28.647 L451.391,28.647 Z" id="Shape" fill="#1C467E"/>
            <path d="M287.8,427.714 L96.942,236.856 C79.591,219.505 69.677,194.718 69.677,169.931 L69.677,169.931 C69.677,147.622 75.873,125.315 89.506,107.964 C108.095,84.417 135.362,70.784 165.105,70.784 L182.456,70.784 C199.807,70.784 215.919,64.588 228.312,53.433 C248.141,53.433 259.295,70.784 259.295,70.784 L259.295,57.151 C263.013,58.391 263.013,58.391 271.688,62.109 C263.012,48.476 249.379,42.28 240.705,39.8 C244.423,34.842 246.901,29.884 248.141,24.929 C253.099,12.536 243.183,0.142 230.79,0.142 L171.303,0.142 C129.165,0.142 88.266,13.775 56.044,41.04 C20.104,73.263 0.274,117.879 0.274,164.975 L0.274,168.693 C0.274,212.069 17.625,254.207 48.608,285.19 L239.466,476.048 L287.8,427.714 L287.8,427.714 Z M204.763,19.973 C204.763,24.931 201.045,28.649 196.087,28.649 C191.129,28.649 187.411,24.931 187.411,19.973 L204.762,19.973 L204.763,19.973 Z" id="Shape" fill="#3486C1"/>
        </g>
    </g>
</svg>